<?xml version="1.0" encoding="utf-8"?>
<!-- Generator: Adobe Illustrator 21.1.0, SVG Export Plug-In . SVG Version: 6.00 Build 0)  -->
<svg version="1.1" id="artwork" xmlns="http://www.w3.org/2000/svg" xmlns:xlink="http://www.w3.org/1999/xlink" x="0px" y="0px"
	 viewBox="0 0 155 60" style="enable-background:new 0 0 155 60;" xml:space="preserve">
<style type="text/css">
	.st0{fill:#FFFFFF;}
</style>
<g>
	<g>
		<g>
			<path d="M142.6,4.3H12.2c-0.5,0-0.9,0-1.4,0c-0.4,0-0.8,0-1.2,0C8.7,4.3,7.8,4.4,7,4.5C6.1,4.6,5.3,4.9,4.5,5.3
				C3.7,5.7,3,6.2,2.4,6.8C1.8,7.5,1.3,8.2,0.9,8.9c-0.4,0.8-0.7,1.6-0.8,2.5c-0.1,0.9-0.2,1.7-0.2,2.6c0,0.4,0,0.8,0,1.2v30
				c0,0.4,0,0.8,0,1.2c0,0.9,0.1,1.7,0.2,2.6c0.1,0.9,0.4,1.7,0.8,2.5c0.4,0.8,0.9,1.5,1.5,2.1c0.6,0.6,1.3,1.1,2.1,1.5
				c0.8,0.4,1.6,0.7,2.5,0.8c0.9,0.1,1.7,0.2,2.6,0.2c0.4,0,0.8,0,1.2,0c0.5,0,0.9,0,1.4,0h130.5c0.5,0,0.9,0,1.4,0
				c0.4,0,0.8,0,1.2,0c0.9,0,1.7-0.1,2.6-0.2c0.9-0.1,1.7-0.4,2.5-0.8c0.8-0.4,1.5-0.9,2.1-1.5c0.6-0.6,1.1-1.3,1.5-2.1
				c0.4-0.8,0.7-1.6,0.8-2.5c0.1-0.9,0.2-1.7,0.2-2.6c0-0.4,0-0.8,0-1.2c0-0.5,0-0.9,0-1.4V16.6c0-0.5,0-0.9,0-1.4
				c0-0.4,0-0.8,0-1.2c0-0.9-0.1-1.7-0.2-2.6c-0.1-0.9-0.4-1.7-0.8-2.5c-0.8-1.6-2.1-2.8-3.6-3.6c-0.8-0.4-1.6-0.7-2.5-0.8
				c-0.9-0.1-1.7-0.2-2.6-0.2c-0.4,0-0.8,0-1.2,0C143.6,4.3,143.1,4.3,142.6,4.3L142.6,4.3z"/>
			<path d="M10.8,55c-0.4,0-0.8,0-1.2,0c-0.8,0-1.6-0.1-2.4-0.2c-0.7-0.1-1.5-0.4-2.1-0.7c-0.7-0.3-1.3-0.8-1.8-1.3
				c-0.5-0.5-1-1.1-1.3-1.8c-0.3-0.7-0.6-1.4-0.7-2.1C1,48,1,47.2,1,46.3c0-0.3,0-1.2,0-1.2v-30c0,0,0-0.9,0-1.2
				c0-0.8,0.1-1.6,0.2-2.4c0.1-0.8,0.4-1.5,0.7-2.2c0.3-0.7,0.8-1.3,1.3-1.8c0.5-0.5,1.1-1,1.8-1.3C5.7,6,6.4,5.7,7.2,5.6
				C8,5.5,8.8,5.4,9.6,5.4l1.2,0H144l1.2,0c0.8,0,1.6,0.1,2.4,0.2c0.8,0.1,1.5,0.4,2.2,0.7c1.3,0.7,2.4,1.8,3.1,3.1
				c0.3,0.7,0.6,1.4,0.7,2.1c0.1,0.8,0.2,1.6,0.2,2.4c0,0.4,0,0.8,0,1.2c0,0.5,0,0.9,0,1.4v27.1c0,0.5,0,0.9,0,1.4
				c0,0.4,0,0.8,0,1.2c0,0.8-0.1,1.6-0.2,2.4c-0.1,0.8-0.4,1.5-0.7,2.2c-0.3,0.7-0.8,1.3-1.3,1.8c-0.5,0.5-1.1,1-1.8,1.3
				c-0.7,0.3-1.4,0.6-2.2,0.7c-0.8,0.1-1.6,0.2-2.4,0.2c-0.4,0-0.8,0-1.2,0l-1.4,0L10.8,55z"/>
		</g>
		<g id="_Group_">
			<g id="_Group_2">
				<g id="_Group_3">
					<path id="_Path_" class="st0" d="M31.9,30.6c0-2.2,1.2-4.2,3.1-5.4c-1.2-1.7-3.1-2.7-5.2-2.8c-2.2-0.2-4.3,1.3-5.4,1.3
						c-1.1,0-2.8-1.3-4.7-1.2c-2.4,0.1-4.6,1.4-5.8,3.5c-2.5,4.3-0.6,10.7,1.8,14.2c1.2,1.7,2.6,3.6,4.4,3.6
						c1.8-0.1,2.5-1.1,4.6-1.1c2.2,0,2.8,1.1,4.7,1.1c1.9,0,3.1-1.7,4.3-3.5c0.9-1.2,1.5-2.6,2-4C33.4,35.3,31.9,33.1,31.9,30.6z"/>
					<path id="_Path_2" class="st0" d="M28.4,20.1c1.1-1.3,1.6-2.9,1.4-4.5c-1.6,0.2-3.1,0.9-4.2,2.2c-1.1,1.2-1.6,2.8-1.5,4.4
						C25.8,22.1,27.4,21.4,28.4,20.1z"/>
				</g>
			</g>
			<g>
				<path class="st0" d="M54.7,39.5h-6.1l-1.5,4.4h-2.6l5.8-16.1H53l5.8,16.1h-2.6L54.7,39.5z M49.2,37.4H54l-2.4-7.1h-0.1
					L49.2,37.4z"/>
				<path class="st0" d="M71.3,37.9c0,3.6-2,6-4.9,6c-1.5,0.1-3-0.7-3.7-2.1h-0.1v5.8h-2.4V32.1h2.3v2h0c0.8-1.3,2.2-2.1,3.7-2.1
					C69.4,31.9,71.3,34.3,71.3,37.9z M68.9,37.9c0-2.4-1.2-3.9-3.1-3.9c-1.8,0-3.1,1.6-3.1,3.9c0,2.4,1.2,4,3.1,4
					C67.6,41.9,68.9,40.3,68.9,37.9z"/>
				<path class="st0" d="M84.3,37.9c0,3.6-2,6-4.9,6c-1.5,0.1-3-0.7-3.7-2.1h-0.1v5.8h-2.4V32.1h2.3v2h0c0.8-1.3,2.2-2.1,3.7-2.1
					C82.3,31.9,84.3,34.3,84.3,37.9z M81.8,37.9c0-2.4-1.2-3.9-3.1-3.9c-1.8,0-3.1,1.6-3.1,3.9c0,2.4,1.2,4,3.1,4
					C80.6,41.9,81.8,40.3,81.8,37.9L81.8,37.9z"/>
				<path class="st0" d="M92.8,39.3c0.2,1.6,1.7,2.6,3.9,2.6c2,0,3.5-1,3.5-2.5c0-1.3-0.9-2-3-2.5l-2.1-0.5c-3-0.7-4.3-2.1-4.3-4.3
					c0-2.8,2.4-4.7,5.9-4.7c3.4,0,5.7,1.9,5.8,4.7H100c-0.1-1.6-1.5-2.6-3.4-2.6s-3.3,1-3.3,2.4c0,1.1,0.8,1.8,2.9,2.3l1.8,0.4
					c3.3,0.8,4.7,2.1,4.7,4.5c0,3-2.4,4.9-6.2,4.9c-3.6,0-6-1.8-6.1-4.8L92.8,39.3z"/>
				<path class="st0" d="M107.9,29.3v2.8h2.2V34h-2.2v6.5c0,1,0.4,1.5,1.4,1.5c0.3,0,0.5,0,0.8-0.1v1.9c-0.4,0.1-0.9,0.1-1.3,0.1
					c-2.4,0-3.3-0.9-3.3-3.2V34h-1.7v-1.9h1.7v-2.8H107.9z"/>
				<path class="st0" d="M111.4,37.9c0-3.7,2.2-6,5.6-6c3.4,0,5.6,2.3,5.6,6c0,3.7-2.2,6-5.6,6C113.6,43.9,111.4,41.6,111.4,37.9z
					 M120.1,37.9c0-2.5-1.2-4-3.1-4c-2,0-3.1,1.5-3.1,4c0,2.5,1.2,4,3.1,4C118.9,42,120.1,40.5,120.1,37.9L120.1,37.9z"/>
				<path class="st0" d="M124.6,32.1h2.3v2h0.1c0.3-1.3,1.5-2.2,2.8-2.1c0.3,0,0.6,0,0.8,0.1v2.3c-0.4-0.1-0.7-0.2-1.1-0.1
					c-1.3-0.1-2.5,1-2.5,2.3c0,0.1,0,0.2,0,0.4v7h-2.4L124.6,32.1z"/>
				<path class="st0" d="M141.7,40.4c-0.3,2.1-2.4,3.6-5.1,3.6c-3.4,0-5.5-2.3-5.5-6c0-3.7,2.1-6.1,5.4-6.1c3.2,0,5.3,2.2,5.3,5.8
					v0.8h-8.3v0.1c-0.1,1.7,1.1,3.2,2.8,3.3c0.1,0,0.3,0,0.4,0c1.2,0.1,2.3-0.6,2.7-1.7L141.7,40.4z M133.5,36.9h5.9
					c0.1-1.6-1.1-2.9-2.7-3c-0.1,0-0.1,0-0.2,0C134.9,33.9,133.5,35.2,133.5,36.9C133.5,36.8,133.5,36.8,133.5,36.9z"/>
			</g>
		</g>
	</g>
	<g id="_Group_4">
		<g>
			<path class="st0" d="M50.9,23.3h-4.8v-7.7h1.2v6.6h3.6V23.3z"/>
			<path class="st0" d="M52.1,21.7c0-1.1,0.8-1.7,2.2-1.7l1.6-0.1v-0.5c0-0.6-0.4-1-1.2-1c-0.6,0-1.1,0.2-1.2,0.6h-1.1
				c0.1-1,1.1-1.6,2.4-1.6c1.5,0,2.3,0.7,2.3,2v4h-1.1v-0.8h-0.1c-0.4,0.6-1,0.9-1.8,0.9c-1,0.1-1.8-0.6-1.9-1.6
				C52.1,21.8,52.1,21.7,52.1,21.7z M55.9,21.2v-0.5l-1.4,0.1c-0.8,0.1-1.2,0.3-1.2,0.8c0,0.5,0.5,0.8,1.1,0.8
				C55.1,22.5,55.8,22,55.9,21.2C55.9,21.2,55.9,21.2,55.9,21.2z"/>
			<path class="st0" d="M58.5,20.4c0-1.8,0.9-3,2.4-3c0.7,0,1.4,0.4,1.8,1h0.1v-3.2H64v8.1h-1.1v-0.9h-0.1c-0.4,0.7-1.1,1-1.8,1
				C59.5,23.4,58.5,22.2,58.5,20.4z M59.7,20.4c0,1.2,0.6,2,1.6,2c1,0,1.6-0.8,1.6-2c0-1.2-0.6-2-1.6-2
				C60.3,18.4,59.7,19.2,59.7,20.4L59.7,20.4z"/>
			<path class="st0" d="M70.8,21.7c-0.3,1.1-1.4,1.8-2.5,1.7c-1.5,0-2.7-1.1-2.7-2.6c0-0.1,0-0.3,0-0.4c-0.2-1.5,0.8-2.8,2.3-3
				c0.1,0,0.3,0,0.4,0c1.6,0,2.6,1.1,2.6,2.9v0.4h-4.1v0.1c-0.1,0.8,0.6,1.6,1.4,1.7c0,0,0.1,0,0.1,0c0.6,0.1,1.1-0.2,1.4-0.7
				L70.8,21.7z M66.8,19.9h2.9c0.1-0.8-0.5-1.5-1.3-1.5c0,0-0.1,0-0.1,0C67.4,18.3,66.8,19,66.8,19.9C66.8,19.8,66.8,19.8,66.8,19.9
				L66.8,19.9z"/>
			<path class="st0" d="M72.4,17.5h1.1v0.9h0.1c0.3-0.7,1-1.1,1.7-1c1-0.1,2,0.7,2,1.8c0,0.1,0,0.3,0,0.4v3.8h-1.2v-3.5
				c0-0.9-0.4-1.4-1.3-1.4c-0.7,0-1.4,0.5-1.4,1.3c0,0.1,0,0.1,0,0.2v3.4h-1.2L72.4,17.5z"/>
			<path class="st0" d="M82.2,15.7c0-0.4,0.3-0.8,0.7-0.8c0.4,0,0.8,0.3,0.8,0.7c0,0.4-0.3,0.8-0.7,0.8c0,0,0,0,0,0
				C82.5,16.5,82.2,16.2,82.2,15.7C82.2,15.8,82.2,15.8,82.2,15.7z M82.4,17.5h1.1v5.8h-1.1V17.5z"/>
			<path class="st0" d="M85.4,17.5h1.1v0.9h0.1c0.4-0.9,1.4-1.3,2.3-0.9c0.4,0.2,0.7,0.5,0.9,0.9h0.1c0.3-0.7,1-1.1,1.8-1.1
				c1-0.1,1.8,0.6,1.9,1.6c0,0.1,0,0.2,0,0.3v4h-1.2v-3.7c0-0.8-0.4-1.2-1.1-1.2c-0.7,0-1.2,0.5-1.2,1.1c0,0,0,0.1,0,0.1v3.7h-1.1
				v-3.8c0-0.6-0.4-1-1-1.1c-0.1,0-0.1,0-0.2,0c-0.7,0-1.2,0.6-1.2,1.3c0,0,0,0,0,0v3.6h-1.2L85.4,17.5z"/>
		</g>
	</g>
</g>
</svg>
