<svg id="Ebene_1" data-name="Ebene 1" xmlns="http://www.w3.org/2000/svg" viewBox="0 0 281.1 80.72"><path class="cls-1" d="M207.8 36.65c0 .42 0 .84.08 1.27.25 2.49 1.39 4.2 3.85 4.59a26 26 0 0 0 7.31.09 4.2 4.2 0 0 0 3.76-4.29c.13-3.42.17-6.87 0-10.29a4.5 4.5 0 0 0-4.38-4.3 26.91 26.91 0 0 0-5.57 0c-3.08.31-4.74 2.13-4.94 5.23-.11 1.36-.11 2.77-.11 4.24v3.46zm0 9.07v14.56h-6.1c0-.65-.08-1.23-.09-1.81v-27.2a22.36 22.36 0 0 1 .29-4.15 10.7 10.7 0 0 1 8.57-9 21.19 21.19 0 0 1 10.75.11c4.54 1.24 7.33 4.26 7.74 8.95a63.12 63.12 0 0 1 .08 11.37c-.79 8.33-7.08 10.94-14.2 10.28a11.6 11.6 0 0 1-7-3.1M6.94 28.44c4.05 0 7.85.2 11.63-.06 3.52-.24 5-2.07 5.08-5.57v-2c-.1-3.58-1.81-5.6-5.32-5.83-3.13-.2-6.27-.09-9.41-.06a1.77 1.77 0 0 0-2 1.88v11.62m0 19.78H.55c0-.63-.08-1.22-.08-1.8V16.51a15.8 15.8 0 0 1 .08-2c.47-3.71 2-5.35 5.7-5.48a117.36 117.36 0 0 1 14.1.15c6 .51 9.25 4.51 9.69 11.3a20 20 0 0 1-.4 5.39c-1.13 5.31-5 8.39-10.78 8.58-3.38.11-6.76 0-10.14.07-.53 0-1.06 0-1.8.09v13.61zM254.8 30.07c.3-4.3-1.29-6.36-5.25-6.87a14.52 14.52 0 0 0-3.41 0c-4 .45-5.75 2.76-5.12 6.87h13.78zm6 5.22h-19.68c-1 5.07 1.07 7.74 6 8a25 25 0 0 0 3.26-.06c2.89-.24 4-1.3 4.57-4.32h5.68c.82 3.29-1.23 7.13-4.77 8.67a20.38 20.38 0 0 1-10.29 1.28 17.87 17.87 0 0 1-3.55-.65c-3.71-1.14-6.36-3.6-6.78-7.45a65.63 65.63 0 0 1-.25-13.51c.53-5.29 3.69-8.34 9-9.22a25 25 0 0 1 8.08 0c5.47.9 8.6 4.83 8.85 10.52.1 2.15 0 4.31 0 6.77M174.48 62.08l-1.33-5.63c6.22-1 8.68-2.95 9.71-7.74h-1.91c-3.92.1-5.91-1.22-7.11-5-.92-2.93-1.62-5.92-2.38-8.9-1.4-5.47-2.76-11-4.16-16.51h6.36l5.22 21.22v.18c.74 3 1.42 3.79 3.33 3.78s2.46-.71 3.16-3.72c1.5-6.45 3-12.9 4.41-19.37.35-1.59.89-2.45 2.71-2.19a31.35 31.35 0 0 0 4.22 0c-.89 3.7-1.73 7.24-2.59 10.78-1.7 7-3.3 14.07-5.13 21.06-1.16 4.44-3.31 8.39-7.8 10.28a47.4 47.4 0 0 1-6.73 1.76M59.54 33.2c0 1.51-.08 3 0 4.52.17 2.73 1.49 4.53 4.16 4.93a24 24 0 0 0 6.8 0 4.38 4.38 0 0 0 3.91-4.33 71.46 71.46 0 0 0 .13-9c-.26-4-1.72-5.37-5.75-5.77a18.53 18.53 0 0 0-4.85.17 5 5 0 0 0-4.39 5c-.11 1.5 0 3 0 4.52m21.05 5.82a10.43 10.43 0 0 1-7.86 9.15 20.7 20.7 0 0 1-11.78-.06c-3.88-1.13-6.76-3.66-7.19-7.75a65 65 0 0 1-.13-13.68c.5-4.6 3.65-7.67 8.23-8.47a30.75 30.75 0 0 1 9.67-.24c6 .9 9.08 4.93 9.36 11.45.05 1.27 0 2.54 0 3.8.01.03-.03 3.9-.3 5.8zM117.22 33.2c0 1.51-.08 3 0 4.52.17 2.73 1.49 4.53 4.16 4.93a24 24 0 0 0 6.8 0 4.38 4.38 0 0 0 3.91-4.33 71.92 71.92 0 0 0 .13-9c-.26-4-1.72-5.37-5.75-5.77a18.5 18.5 0 0 0-4.85.17 5 5 0 0 0-4.39 5c-.11 1.5 0 3 0 4.52m21 6a10.29 10.29 0 0 1-7.3 8.81 20.42 20.42 0 0 1-12.62 0c-3.76-1.15-6.47-3.68-6.87-7.6a67 67 0 0 1-.15-13.66c.46-4.45 3.5-7.31 7.85-8.49a21.45 21.45 0 0 1 11.45 0c5 1.38 7.71 5.2 8 11.17.06 1.27 0 2.54 0 3.8a58.08 58.08 0 0 1-.34 5.93zM89.96 24.23h-5.53v-4.94c1.32-.25 2.67-.55 4-.74a1.55 1.55 0 0 0 1.64-1.66c.13-2.15.52-4.29.81-6.53h5.22v7.8h10.07v6h-10v13.89s1.5 4.88 4.87 4.91c1.8 0 3.59-.26 5.55-.42 0 1.49.07 3 0 4.59a1.65 1.65 0 0 1-1 1.17 17.1 17.1 0 0 1-9.79-.13c-3.42-1.12-5.64-4.36-5.75-8.6-.12-4.41-.06-8.82-.09-13.23v-2.11M147.63 24.23h-5.53v-4.95c1.32-.25 2.66-.55 4-.74a1.55 1.55 0 0 0 1.7-1.66c.13-2.15.52-4.29.81-6.53h5.19v7.8h10v6h-10v13.89s1.5 4.88 4.87 4.91c1.79 0 3.59-.26 5.55-.42 0 1.49.07 3 0 4.59a1.65 1.65 0 0 1-1 1.17 17.08 17.08 0 0 1-9.81-.09c-3.43-1.12-5.64-4.36-5.75-8.59-.12-4.41-.06-8.82-.09-13.23v-2.11M50.8 17.97v5.61c-1.83 0-3.63-.1-5.41 0a3.31 3.31 0 0 0-3.28 3.14 21.71 21.71 0 0 0-.31 3v18.41h-6a2.48 2.48 0 0 1-.14-.61c0-6.76-.21-13.53.05-20.27.28-7.33 5.29-10 12.52-9.69a22.64 22.64 0 0 1 2.55.39M265.3 13.32c2.77 0 5.36.14 7.94 0 2.4-.16 3.39-1.42 3.47-3.8V8.16c-.07-2.44-1.23-3.82-3.63-4-2.13-.14-4.28-.06-6.43 0a1.21 1.21 0 0 0-1.34 1.29v7.93m-4.42 3.86v-12a10.78 10.78 0 0 1 .05-1.36c.32-2.54 1.33-3.65 3.89-3.74a80.11 80.11 0 0 1 9.63.1c4.08.35 6.32 3.08 6.62 7.71a13.7 13.7 0 0 1-.27 3.68c-.77 3.63-3.43 5.73-7.36 5.86-2.31.08-4.62 0-6.92.05-.36 0-5.63.08-5.63-.32M7.58 76.64a6.74 6.74 0 0 0 1.66-.2 4.38 4.38 0 0 0 1.42-.63 3.31 3.31 0 0 0 1-1.07 3 3 0 0 0 .38-1.53 3.07 3.07 0 0 0-.45-1.77 3 3 0 0 0-1.17-1 4.83 4.83 0 0 0-1.62-.46 15.75 15.75 0 0 0-1.78-.1H4.53v6.55a2.12 2.12 0 0 0 .55.1l.81.05.91.04h.81m-1.57-10.3h1.11a10 10 0 0 0 1-.1A6.23 6.23 0 0 0 10.4 65a2.69 2.69 0 0 0 .94-2.14A2.83 2.83 0 0 0 11 61.4a2.6 2.6 0 0 0-.91-.92 3.85 3.85 0 0 0-1.29-.47 8.1 8.1 0 0 0-1.51-.14H5.64a10.64 10.64 0 0 0-1.17.1v6.35h1.57zm10.12-4.5a7.32 7.32 0 0 1-.22 1.78 4.9 4.9 0 0 1-.74 1.63 5.2 5.2 0 0 1-1.34 1.3 5.86 5.86 0 0 1-2 .84v.21a8 8 0 0 1 2 .58 5 5 0 0 1 1.61 1.13 5.21 5.21 0 0 1 1.08 1.75 6.82 6.82 0 0 1 .39 2.44 6.27 6.27 0 0 1-.82 3.24 6.52 6.52 0 0 1-2.11 2.21 9.69 9.69 0 0 1-3 1.27 14.52 14.52 0 0 1-3.46.41H6.06q-.91 0-2-.05t-2.13-.15a15.22 15.22 0 0 1-2-.31V56.4l1.49-.21q.84-.1 1.8-.17t2-.1h2a20.59 20.59 0 0 1 3.27.26 9.38 9.38 0 0 1 2.85.91 5.22 5.22 0 0 1 2 1.82 5.34 5.34 0 0 1 .75 2.95M27.51 66.18a3.12 3.12 0 0 0-2.59 1 5.17 5.17 0 0 0-1 2.8h6.38a4.32 4.32 0 0 0-.57-2.85 2.52 2.52 0 0 0-2.21-1m6.37 12.59a8.74 8.74 0 0 1-2.79 1.39 12.26 12.26 0 0 1-3.76.57q-4.15 0-6.07-2.42a10.4 10.4 0 0 1-1.92-6.64q0-4.53 2.16-6.79a8 8 0 0 1 6.07-2.26 9.46 9.46 0 0 1 2.54.34 5.9 5.9 0 0 1 2.19 1.13 5.58 5.58 0 0 1 1.54 2.13 8.34 8.34 0 0 1 .58 3.33 15 15 0 0 1-.09 1.54q-.09.82-.26 1.71H23.8a5 5 0 0 0 1.11 3.26 4.27 4.27 0 0 0 3.28 1.1 7.29 7.29 0 0 0 4.22-1.3zM47.06 67.28a5.82 5.82 0 0 0-1.92-.38 3.15 3.15 0 0 0-2 .63 3.06 3.06 0 0 0-1.08 1.63v11.08h-4.47V63.09h3.46l.51 2.26h.14a4.68 4.68 0 0 1 1.58-2 4 4 0 0 1 2.34-.63 6.5 6.5 0 0 1 2 .38zM54.23 74.48a3.73 3.73 0 0 0 .31 1.75 1.06 1.06 0 0 0 1 .55 4.65 4.65 0 0 0 .8-.06 4.87 4.87 0 0 0 1-.31l.46 3.49a8.51 8.51 0 0 1-1.68.55 9.88 9.88 0 0 1-2.32.27 4.37 4.37 0 0 1-3-.91 3.83 3.83 0 0 1-1-3V56.23h4.46v18.25zM60.12 63.09h4.46v17.15h-4.46V63.09zm-.65-4.84a2.26 2.26 0 0 1 .74-1.7 2.84 2.84 0 0 1 2-.7 3.09 3.09 0 0 1 2.11.7 2.18 2.18 0 0 1 .81 1.7 2.08 2.08 0 0 1-.81 1.66 3.2 3.2 0 0 1-2.11.67 2.93 2.93 0 0 1-2-.67 2.15 2.15 0 0 1-.74-1.66M79.43 80.24V70.5a5.76 5.76 0 0 0-.6-3 2.25 2.25 0 0 0-2-.93 3.22 3.22 0 0 0-2.14.74 4.11 4.11 0 0 0-1.25 1.84v11.09h-4.5V63.09h3.53l.51 2.26h.14a7.39 7.39 0 0 1 2.09-1.92 6.2 6.2 0 0 1 3.36-.82 6.94 6.94 0 0 1 2.26.34 3.86 3.86 0 0 1 1.68 1.13 5.15 5.15 0 0 1 1 2.14 13.85 13.85 0 0 1 .34 3.34v10.68h-4.42z"/></svg>