<?xml version="1.0" encoding="utf-8"?>
<!-- Generator: Adobe Illustrator 21.1.0, SVG Export Plug-In . SVG Version: 6.00 Build 0)  -->
<svg version="1.1" id="artwork" xmlns="http://www.w3.org/2000/svg" xmlns:xlink="http://www.w3.org/1999/xlink" x="0px" y="0px"
	 viewBox="0 0 155 60" style="enable-background:new 0 0 155 60;" xml:space="preserve">
<style type="text/css">
	.st0{fill:#FFFFFF;}
	.st1{fill:url(#SVGID_1_);}
	.st2{fill:url(#SVGID_2_);}
	.st3{fill:url(#SVGID_3_);}
	.st4{fill:url(#SVGID_4_);}
	.st5{opacity:0.2;enable-background:new    ;}
	.st6{opacity:0.12;enable-background:new    ;}
	.st7{opacity:0.25;fill:#FFFFFF;enable-background:new    ;}
	.st8{fill:#FFFFFF;stroke:#FFFFFF;stroke-width:0.2296;stroke-miterlimit:10;}
</style>
<g>
	<g>
		<path d="M149.3,53H5.7C2.6,53,0,50.4,0,47.2V12.8C0,9.6,2.6,7,5.7,7h143.5c3.2,0,5.7,2.6,5.7,5.7v34.4C155,50.4,152.4,53,149.3,53
			z"/>
	</g>
	<g>
		<path d="M149.3,8c2.7,0,4.8,2.2,4.8,4.8v34.4c0,2.7-2.2,4.8-4.8,4.8H5.7c-2.7,0-4.8-2.2-4.8-4.8V12.8C0.9,10.1,3.1,8,5.7,8H149.3
			 M149.3,7H5.7C2.6,7,0,9.6,0,12.8v34.4C0,50.4,2.6,53,5.7,53h143.5c3.2,0,5.7-2.6,5.7-5.7V12.8C155,9.6,152.4,7,149.3,7L149.3,7z"
			/>
	</g>
	<path class="st0" d="M78.2,32c-2.7,0-4.9,2.1-4.9,4.9c0,2.8,2.2,4.9,4.9,4.9c2.7,0,4.9-2.1,4.9-4.9C83.1,34.1,80.9,32,78.2,32z
		 M78.2,39.9c-1.5,0-2.8-1.2-2.8-3c0-1.8,1.3-3,2.8-3c1.5,0,2.8,1.2,2.8,3C81,38.6,79.7,39.9,78.2,39.9z M67.5,32
		c-2.7,0-4.9,2.1-4.9,4.9c0,2.8,2.2,4.9,4.9,4.9c2.7,0,4.9-2.1,4.9-4.9C72.4,34.1,70.2,32,67.5,32z M67.5,39.9c-1.5,0-2.8-1.2-2.8-3
		c0-1.8,1.3-3,2.8-3c1.5,0,2.8,1.2,2.8,3C70.3,38.6,69,39.9,67.5,39.9z M54.8,33.5v2.1h5c-0.1,1.2-0.5,2-1.1,2.6
		c-0.7,0.7-1.8,1.5-3.8,1.5c-3.1,0-5.4-2.5-5.4-5.5s2.4-5.5,5.4-5.5c1.6,0,2.8,0.6,3.7,1.5l1.5-1.5c-1.2-1.2-2.9-2.1-5.2-2.1
		c-4.2,0-7.7,3.4-7.7,7.6c0,4.2,3.5,7.6,7.7,7.6c2.3,0,4-0.7,5.3-2.1c1.4-1.4,1.8-3.3,1.8-4.8c0-0.5,0-0.9-0.1-1.3H54.8z
		 M106.8,35.1c-0.4-1.1-1.6-3.1-4.2-3.1c-2.5,0-4.6,2-4.6,4.9c0,2.7,2.1,4.9,4.8,4.9c2.2,0,3.5-1.4,4.1-2.2l-1.7-1.1
		c-0.6,0.8-1.3,1.4-2.4,1.4c-1.1,0-1.9-0.5-2.4-1.5l6.5-2.7L106.8,35.1z M100.2,36.7c-0.1-1.9,1.5-2.8,2.6-2.8c0.9,0,1.6,0.4,1.8,1
		L100.2,36.7z M94.9,41.5H97V27.1h-2.1V41.5z M91.4,33.1L91.4,33.1c-0.6-0.6-1.5-1.1-2.6-1.1c-2.4,0-4.7,2.1-4.7,4.9
		c0,2.7,2.2,4.9,4.7,4.9c1.2,0,2.1-0.5,2.6-1.1h0.1v0.7c0,1.9-1,2.9-2.6,2.9c-1.3,0-2.1-0.9-2.5-1.7l-1.9,0.8c0.5,1.3,2,2.9,4.3,2.9
		c2.5,0,4.6-1.5,4.6-5.1v-8.8h-2V33.1z M88.9,39.9c-1.5,0-2.7-1.2-2.7-2.9c0-1.7,1.2-3,2.7-3c1.5,0,2.6,1.3,2.6,3
		C91.5,38.6,90.4,39.9,88.9,39.9z M116.9,27.1h-5.1v14.4h2.1V36h3c2.4,0,4.7-1.7,4.7-4.5S119.3,27.1,116.9,27.1z M116.9,34h-3v-4.9
		h3c1.6,0,2.5,1.3,2.5,2.5C119.5,32.7,118.5,34,116.9,34z M130.2,32c-1.6,0-3.2,0.7-3.8,2.2l1.9,0.8c0.4-0.8,1.2-1.1,2-1.1
		c1.1,0,2.2,0.7,2.3,1.8v0.1c-0.4-0.2-1.2-0.6-2.2-0.6c-2,0-4.1,1.1-4.1,3.2c0,1.9,1.7,3.2,3.6,3.2c1.4,0,2.2-0.6,2.7-1.4h0.1v1.1
		h2.1V36C134.5,33.4,132.6,32,130.2,32z M129.9,39.9c-0.7,0-1.7-0.4-1.7-1.2c0-1.1,1.2-1.5,2.3-1.5c0.9,0,1.4,0.2,2,0.5
		C132.3,38.9,131.2,39.9,129.9,39.9z M142.1,32.3l-2.5,6.2h-0.1l-2.5-6.2h-2.3l3.8,8.7l-2.2,4.8h2.2l5.9-13.5H142.1z M122.8,41.5
		h2.1V27.1h-2.1V41.5z"/>
	
		<linearGradient id="SVGID_1_" gradientUnits="userSpaceOnUse" x1="25.0294" y1="184.9629" x2="5.7607" y2="165.6942" gradientTransform="matrix(1 0 0 -1 0 202)">
		<stop  offset="0" style="stop-color:#00A0FF"/>
		<stop  offset="6.574450e-03" style="stop-color:#00A1FF"/>
		<stop  offset="0.2601" style="stop-color:#00BEFF"/>
		<stop  offset="0.5122" style="stop-color:#00D2FF"/>
		<stop  offset="0.7604" style="stop-color:#00DFFF"/>
		<stop  offset="1" style="stop-color:#00E3FF"/>
	</linearGradient>
	<path class="st1" d="M12,15.7c-0.3,0.4-0.5,0.9-0.5,1.6v25.4c0,0.7,0.2,1.3,0.5,1.6l0.1,0.1l14.2-14.2V30v-0.2L12,15.7L12,15.7z"/>
	
		<linearGradient id="SVGID_2_" gradientUnits="userSpaceOnUse" x1="38.8469" y1="171.9983" x2="11.0653" y2="171.9983" gradientTransform="matrix(1 0 0 -1 0 202)">
		<stop  offset="0" style="stop-color:#FFE000"/>
		<stop  offset="0.4087" style="stop-color:#FFBD00"/>
		<stop  offset="0.7754" style="stop-color:#FFA500"/>
		<stop  offset="1" style="stop-color:#FF9C00"/>
	</linearGradient>
	<path class="st2" d="M31,34.9l-4.7-4.7V30v-0.2l4.7-4.7l0.1,0.1l5.6,3.2c1.6,0.9,1.6,2.4,0,3.3l-5.6,3.2L31,34.9z"/>
	
		<linearGradient id="SVGID_3_" gradientUnits="userSpaceOnUse" x1="28.5051" y1="169.3637" x2="2.3752" y2="143.2339" gradientTransform="matrix(1 0 0 -1 0 202)">
		<stop  offset="0" style="stop-color:#FF3A44"/>
		<stop  offset="1" style="stop-color:#C31162"/>
	</linearGradient>
	<path class="st3" d="M31.1,34.9L26.3,30L12,44.3c0.5,0.6,1.4,0.6,2.4,0.1L31.1,34.9"/>
	
		<linearGradient id="SVGID_4_" gradientUnits="userSpaceOnUse" x1="8.3785" y1="194.7607" x2="20.0466" y2="183.0926" gradientTransform="matrix(1 0 0 -1 0 202)">
		<stop  offset="0" style="stop-color:#32A071"/>
		<stop  offset="6.850000e-02" style="stop-color:#2DA771"/>
		<stop  offset="0.4762" style="stop-color:#15CF74"/>
		<stop  offset="0.8009" style="stop-color:#06E775"/>
		<stop  offset="1" style="stop-color:#00F076"/>
	</linearGradient>
	<path class="st4" d="M31.1,25.2l-16.8-9.5c-1-0.6-1.9-0.5-2.4,0.1L26.3,30L31.1,25.2z"/>
	<path class="st5" d="M31,34.7l-16.7,9.5c-0.9,0.5-1.8,0.5-2.3,0l0,0L12,44.3l0,0l0.1,0.1l0,0c0.5,0.5,1.4,0.5,2.3,0l16.8-9.5
		L31,34.7z"/>
	<path class="st6" d="M12,44.1c-0.3-0.4-0.5-0.9-0.5-1.6v0.2c0,0.7,0.2,1.3,0.5,1.6V44.1L12,44.1z"/>
	<path class="st6" d="M36.8,31.5L31,34.7l0.1,0.1l5.6-3.2c0.8-0.5,1.2-1.1,1.2-1.7l0,0C37.9,30.5,37.5,31.1,36.8,31.5z"/>
	<path class="st7" d="M14.4,15.8l22.4,12.7c0.7,0.4,1.1,0.9,1.2,1.5l0,0c0-0.6-0.4-1.2-1.2-1.7L14.4,15.6c-1.6-0.9-2.9-0.2-2.9,1.7
		v0.2C11.5,15.6,12.8,14.9,14.4,15.8z"/>
	<path class="st8" d="M49.4,22.1c-0.5,0-0.9-0.1-1.3-0.4c-0.4-0.3-0.6-0.7-0.8-1.2l0.8-0.3c0.2,0.7,0.6,1.1,1.3,1.1
		c0.4,0,0.7-0.1,0.9-0.4c0.2-0.3,0.3-0.6,0.3-1.1v-4.7h0.9v4.7c0,0.8-0.2,1.3-0.6,1.7C50.6,21.9,50,22.1,49.4,22.1z"/>
	<path class="st8" d="M57.1,15.9h-3.1v2.2h2.8v0.8h-2.8v2.2h3.1V22h-4v-6.9h4V15.9z"/>
	<path class="st8" d="M60.8,22h-0.9v-6H58v-0.8h4.7v0.8h-1.9V22z"/>
	<path class="st8" d="M63.5,22V21l3.7-5.1h-3.5v-0.8h4.5V16l-3.7,5.1h3.7V22H63.5z"/>
	<path class="st8" d="M71.8,22h-0.9v-6H69v-0.8h4.7v0.8h-1.9V22z"/>
	<path class="st8" d="M77.2,22v-6.9h2.5c0.5,0,1,0.2,1.4,0.5c0.4,0.4,0.6,0.8,0.6,1.3c0,0.3-0.1,0.6-0.3,0.9
		c-0.2,0.3-0.4,0.4-0.7,0.6v0c0.3,0.1,0.6,0.3,0.8,0.6c0.2,0.3,0.3,0.6,0.3,1c0,0.6-0.2,1-0.6,1.4c-0.4,0.4-0.9,0.6-1.5,0.6H77.2z
		 M78,18h1.6c0.3,0,0.6-0.1,0.8-0.3c0.2-0.2,0.3-0.5,0.3-0.7s-0.1-0.5-0.3-0.7c-0.2-0.2-0.5-0.3-0.8-0.3H78V18z M78,21.1h1.8
		c0.3,0,0.6-0.1,0.8-0.4c0.2-0.2,0.3-0.5,0.3-0.8c0-0.3-0.1-0.5-0.3-0.8c-0.2-0.2-0.5-0.4-0.9-0.4H78V21.1z"/>
	<path class="st8" d="M87.1,15.9H84v2.2h2.8v0.8H84v2.2h3.1V22h-4v-6.9h4V15.9z"/>
	<path class="st8" d="M88.5,22v-6.9h0.9V22H88.5z"/>
</g>
</svg>
