<?xml version="1.0" standalone="no"?>
<!DOCTYPE svg PUBLIC "-//W3C//DTD SVG 20010904//EN"
 "http://www.w3.org/TR/2001/REC-SVG-20010904/DTD/svg10.dtd">
<svg version="1.0" xmlns="http://www.w3.org/2000/svg"
 width="1024.000000pt" height="1024.000000pt" viewBox="0 0 1024.000000 1024.000000"
 preserveAspectRatio="xMidYMid meet">
<metadata>
Created by potrace 1.11, written by Peter Selinger 2001-2013
</metadata>
<g transform="translate(0.000000,1024.000000) scale(0.100000,-0.100000)"
fill="#000000" stroke="none">
<path d="M3768 8505 c-2 -2 -124 -6 -273 -10 -528 -12 -777 -23 -920 -41 -502
-63 -821 -277 -1009 -675 -55 -116 -111 -288 -140 -429 -3 -14 -10 -46 -15
-71 -6 -26 -17 -96 -26 -155 -8 -60 -18 -129 -22 -154 -8 -52 -16 -5085 -9
-5115 7 -28 90 -56 206 -70 30 -4 66 -9 80 -10 14 -2 63 -6 110 -10 47 -4 101
-8 120 -10 274 -27 3916 -27 4240 0 271 22 321 28 475 56 427 78 883 271 1170
496 17 13 35 27 40 31 196 141 451 430 603 684 202 336 325 688 417 1193 15
87 49 365 62 520 16 181 9 726 -12 903 -2 20 -7 66 -10 102 -6 59 -49 348 -59
395 -2 11 -11 56 -21 100 -33 162 -128 484 -170 580 -8 17 -26 59 -40 95 -38
92 -130 273 -185 365 -276 457 -682 797 -1175 985 -167 63 -461 136 -625 155
-30 3 -66 8 -80 10 -31 4 -131 13 -230 20 -41 3 -97 7 -125 10 -47 4 -132 10
-305 20 -41 3 -131 7 -200 10 -69 3 -172 8 -230 11 -110 6 -1636 14 -1642 9z
m1691 -1579 c177 -7 273 -11 416 -21 116 -8 154 -13 306 -39 51 -8 185 -49
257 -77 434 -172 694 -530 782 -1074 27 -173 33 -271 33 -595 1 -376 -9 -517
-49 -717 -75 -382 -242 -654 -502 -820 -112 -72 -297 -145 -437 -172 -27 -6
-59 -12 -70 -15 -75 -15 -130 -21 -280 -31 -343 -24 -607 -30 -1190 -29 -583
1 -1717 14 -1723 19 -4 3 -5 2273 -2 2876 1 288 10 360 57 453 50 100 160 184
279 214 74 19 131 22 574 28 245 3 446 7 447 8 5 4 953 -2 1102 -8z"/>
</g>
</svg>
